<svg id="Stamps" xmlns="http://www.w3.org/2000/svg" xmlns:xlink="http://www.w3.org/1999/xlink" viewBox="0 0 612 792"><defs><style>.cls-1{fill:#ffefc1;stroke-width:1.37px;}.cls-1,.cls-13{stroke:#231f20;}.cls-1,.cls-10,.cls-12,.cls-13,.cls-2,.cls-3,.cls-5,.cls-7,.cls-9{stroke-miterlimit:10;}.cls-2{fill:#c5ddc6;stroke-width:1.33px;}.cls-10,.cls-12,.cls-2,.cls-3,.cls-5,.cls-6,.cls-7,.cls-8,.cls-9{stroke:#010101;}.cls-3{fill:url(#linear-gradient);}.cls-4{fill:#e6e7e8;}.cls-5,.cls-6{fill:#44abe0;}.cls-5{stroke-width:1.85px;}.cls-6{stroke-linejoin:round;stroke-width:2px;}.cls-7{fill:url(#linear-gradient-2);}.cls-8{fill:#939598;stroke-linejoin:bevel;}.cls-9{fill:url(#linear-gradient-3);}.cls-10{fill:url(#linear-gradient-4);}.cls-11{fill:#228db7;}.cls-12{fill:none;stroke-width:0.5px;}.cls-13{fill:#fff;}.cls-14{fill:#010101;}</style><linearGradient id="linear-gradient" x1="554.74" y1="149.46" x2="454.21" y2="249.99" gradientUnits="userSpaceOnUse"><stop offset="0" stop-color="#bcbec0"/><stop offset="0.44" stop-color="#b7b7be"/><stop offset="0.72" stop-color="#bbb3b5"/><stop offset="0.72" stop-color="#bcb2b4"/><stop offset="0.81" stop-color="#d08385"/><stop offset="0.89" stop-color="#de6263"/><stop offset="0.95" stop-color="#e74d4e"/><stop offset="1" stop-color="#ea4647"/></linearGradient><linearGradient id="linear-gradient-2" x1="431.8" y1="262.79" x2="234.1" y2="460.49" gradientUnits="userSpaceOnUse"><stop offset="0.01" stop-color="#ea4647"/><stop offset="0.06" stop-color="#d96c6f"/><stop offset="0.14" stop-color="#b7b7be"/><stop offset="1" stop-color="#bcbec0"/></linearGradient><linearGradient id="linear-gradient-3" x1="308.06" y1="395.92" x2="242.32" y2="441.95" gradientUnits="userSpaceOnUse"><stop offset="0" stop-color="#bcbec0"/><stop offset="0.44" stop-color="#b7b7be"/><stop offset="0.52" stop-color="#bbb3b5"/><stop offset="0.78" stop-color="#d67475"/><stop offset="0.99" stop-color="#ea4647"/></linearGradient><linearGradient id="linear-gradient-4" x1="206.54" y1="470.48" x2="46.77" y2="630.25" gradientUnits="userSpaceOnUse"><stop offset="0.01" stop-color="#ea4647"/><stop offset="0.03" stop-color="#e74d4f"/><stop offset="0.1" stop-color="#d67376"/><stop offset="0.16" stop-color="#c89196"/><stop offset="0.23" stop-color="#bfa6ac"/><stop offset="0.29" stop-color="#b9b3b9"/><stop offset="0.35" stop-color="#b7b7be"/><stop offset="1" stop-color="#bcbec0"/></linearGradient></defs><title>stamps</title><g id="GR_Sticky_Bead_Argument_Quadrupole_Formula" data-name="GR / Sticky Bead Argument / Quadrupole Formula"><g id="Sticky_Bead_Illustration" data-name="Sticky Bead Illustration"><g id="Layer_86" data-name="Layer 86"><rect class="cls-1" x="62" y="148.43" width="491.43" height="496.57"/></g><path class="cls-2" d="M426.16,250.58s-30.17,33.25-76.53,60.2c-50,29.09-113.83,28.77-138.11,51.22-22.83,21.11-21.43,82.54-46.74,112.84C111,539.15,87,554,87,554l13.13,13.58L491.6,202.5Z"/><path class="cls-3" d="M451.45,233.38,549,148.43S559.83,148,561.58,162l-98,97.39"/><path class="cls-4" d="M455.95,234.66s-1.15,4.28,3.13,3.41,42-37.23,40.3-38.46S455.95,234.66,455.95,234.66Z"/><g id="Layer_84" data-name="Layer 84"><path class="cls-5" d="M445.53,227.61c-17-1.11-45.63,25.89-45.63,25.89,0,2.37,16.93,8.67,17.43,10.87l16.92-10.87.56-6c2.65-3,.54,13.38,4.79,13.38,8,0,4.65-2.8,4.65,5.46,0,3.68,7.63-1.18,6.06.91a1.55,1.55,0,0,0-.26.5l-1.8,6.29-.5-3.75c-.48.55,4.43,1.41,3.88,1.88l-14.16,14.09C440,287,442.73,302,445.53,302c0,0,30.22-28,29-44.45S461.49,228.65,445.53,227.61Z"/><path class="cls-6" d="M456.25,277.49a33.29,33.29,0,0,1-64.73,11c-.95-2.71,31.44-11,31.44-11H396.84l-6.33,5.22-.84-5.22a33.29,33.29,0,1,1,66.57,0Z"/></g><path class="cls-7" d="M437.22,286c1.15-1.41,2.38-5.41,2.38-8.54a16.63,16.63,0,0,0-29-11.17h0l-25,24.65L351.1,322h-6l-3.93,8.63.22,9.22-11.6-.27L327.17,345l-7.7-1.07-4.55,12.67L305,358.21l-3.47,14.18-9.66.22-22.35,19.47-1.32,5.16-5.34.64-48.85,42.55,35.46,33.74,60.64-60.28,1-6.51,9.68,1.25.81-6.2,6.78,3.77.86-9.25,2.47-7.42,7.33-.31,2.28-11.69,5.49-.17-1.56-7.17,11,2.18v-9.57l6.06-.84,3.08-10.1,6.49,1.53,8.49-2.38V345l31.25-32,21.71-22.53A38.7,38.7,0,0,0,437.22,286Z"/><g id="Layer_85" data-name="Layer 85"><path class="cls-8" d="M329.71,339.57s9.42-.78,15.42,6.22-3.82-5.95-3.82-5.95Z"/><path class="cls-8" d="M362.29,361.95s1.07-15.12-6.58-20.62c0,0,5.56,2.79,9.65,10.52"/><path class="cls-8" d="M356.22,372.36s-1.59-13.78-11.09-20.72c0,0,6.69,6.67,11.09,11.15Z"/><path class="cls-8" d="M346.8,377.34l-.4-.61c-1.62-2.45-7.84-11.63-13.44-16.66-6.5-5.83,12.28,10.1,12.28,10.1Z"/><path class="cls-8" d="M319.37,343.84s10.93,4.06,16.76,10.9-9.06-9.83-9.06-9.83Z"/><path class="cls-8" d="M314.81,356.51s8.15,3.06,12.65,9.56-1.2-5.63-22.52-7.9Z"/><path class="cls-8" d="M339,389.2c-.26-4.7.26-11.66-3.82-12.83l-2-4.66c6.7,2.7,8.1,5.8,8.1,5.8Z"/><path class="cls-8" d="M301.48,372.36c7.72,3,10.73,13.71,10.73,13.71-6.5-11.5-20.39-13.49-20.39-13.49Z"/><path class="cls-8" d="M321.59,402.4s-2.88-9.08-9.38-12.08c0,0,6.64,5.57,8.57,18.28Z"/><path class="cls-8" d="M328.37,406.17a20.61,20.61,0,0,0-2.13-15.85s-1.9-8.63-5.46-12.32c0,0,4.41-.31,10.93,11.5Z"/><path class="cls-8" d="M362.84,332.57A30.46,30.46,0,0,0,345,322h6l3.89-3.49s6.45,6.32,8,10.45C362.84,328.95,361.09,329.82,362.84,332.57Z"/><path class="cls-8" d="M380.34,351s-5-13.3-12.43-17.81c0,0,12,6.09,14.27,9.87l-1.85,1.89Z"/></g><polyline class="cls-9" points="291.93 372.88 269.57 392.35 268.25 397.51 262.91 398.15 232.03 425.53 245.94 447.12 258.76 464.77 310.16 414.17 311.2 407.66"/><path class="cls-4" d="M215.7,454.75c-2.47-2.94,42.54-45.12,46.62-41.87S218.18,457.69,215.7,454.75Z"/><g id="Layer_83" data-name="Layer 83"><path class="cls-5" d="M220.64,423.95c-26.91,0-61.28,37.27-61.28,37.27,0,1.86,18.38,9.95,18.6,11.75l26-14.89,4.67,2.92c4.06-3.31,2,6.47,7.67,6.47,13.09,0,9.67-2.81,9.67,8.61,0,8,14.45,6.47,8.5,10.82L211.29,510c3,.68,10.15,18.26,13.36,18.26,0,0,40.35-33.22,39-60.75C262.5,443.46,244.4,423.95,220.64,423.95Z"/><path class="cls-6" d="M240.53,493.1a46.8,46.8,0,0,1-83.72,28.75c-5.34-6.85,15-6.38,14.2-15.52-.07-.76,22-13.23,22.73-13.23H149.18l-2.1,1.84-.14-1.84a46.8,46.8,0,1,1,93.6,0Z"/></g><path class="cls-10" d="M219.43,494A25.77,25.77,0,0,0,177.51,474l-.2.15L42.85,590s-17.33,37.69,29.33,59L207.51,513.71C213.47,507.26,219.43,502.64,219.43,494Z"/><path class="cls-4" d="M45,598.52s-3.62,13.24,9.64,10.6S185.28,494.38,179.87,490.54,45,598.52,45,598.52Z"/><path class="cls-8" d="M271.25,402.75s-6.19-4.71-8.34-4.86,5.34-.64,5.34-.64S269.75,397.25,271.25,402.75Z"/><path class="cls-8" d="M302,397.25s3.89.8,9.18,10.15l-1,6.51S306.79,401.5,302,397.25Z"/><path class="cls-11" d="M235.81,516.44c30-40.79,9.86-82.93,9.86-82.93s27.67,21.32,12.34,53.27A93.05,93.05,0,0,1,235.81,516.44Z"/><path class="cls-11" d="M453.27,293.23c21.65-29.44,7.12-59.86,7.12-59.86s22.86,14.88,9.19,38.74A97.91,97.91,0,0,1,453.27,293.23Z"/><path class="cls-4" d="M365,319.79c-2.47-2.94,42.54-45.12,46.62-41.87S367.44,322.73,365,319.79Z"/><g id="Layer_88" data-name="Layer 88"><line class="cls-12" x1="302.29" y1="366.99" x2="213.79" y2="360.94"/><line class="cls-12" x1="273.51" y1="388.11" x2="199.13" y2="383.02"/><line class="cls-12" x1="316.9" y1="349.9" x2="247.93" y2="345.18"/><line class="cls-12" x1="341.31" y1="337.01" x2="290.55" y2="333.54"/><line class="cls-12" x1="250.22" y1="408.95" x2="191.73" y2="404.95"/><line class="cls-12" x1="343.55" y1="324.81" x2="322.79" y2="323.43"/><line class="cls-12" x1="360.54" y1="313.32" x2="346.8" y2="312.38"/><line class="cls-12" x1="372.75" y1="302.57" x2="363.7" y2="301.95"/><line class="cls-12" x1="384.72" y1="292.11" x2="378.97" y2="291.35"/><line class="cls-12" x1="201.56" y1="428.68" x2="185.61" y2="428.08"/><line class="cls-12" x1="149.81" y1="497.74" x2="145.34" y2="497.46"/></g></g><g id="Stamp_Frame" data-name="Stamp Frame"><path class="cls-13" d="M594,133.62h0v-12.8h0a12.8,12.8,0,0,1-12.8-12.8h-12.8a12.8,12.8,0,0,1-25.6,0H530a12.8,12.8,0,0,1-25.6,0h-12.8a12.8,12.8,0,0,1-25.6,0h-12.8a12.8,12.8,0,0,1-25.6,0h-12.8a12.8,12.8,0,0,1-25.6,0h-12.8a12.8,12.8,0,0,1-25.6,0H338a12.8,12.8,0,0,1-25.6,0h-12.8a12.8,12.8,0,0,1-25.6,0h-12.8a12.8,12.8,0,0,1-25.6,0h-12.8a12.8,12.8,0,0,1-25.6,0h-12.8a12.8,12.8,0,0,1-25.6,0H146a12.8,12.8,0,0,1-25.6,0H107.6A12.8,12.8,0,0,1,82,108H69.2a12.8,12.8,0,0,1-25.6,0H30.8A12.8,12.8,0,0,1,18,120.8v12.8a12.8,12.8,0,0,1,0,25.6V172a12.8,12.8,0,0,1,0,25.6v12.8A12.8,12.8,0,0,1,18,236v12.8a12.8,12.8,0,0,1,0,25.6v12.8a12.8,12.8,0,0,1,0,25.6v12.8a12.8,12.8,0,0,1,0,25.6V364a12.8,12.8,0,0,1,0,25.6v12.8A12.8,12.8,0,0,1,18,428v12.8a12.8,12.8,0,0,1,0,25.6v12.8a12.8,12.8,0,0,1,0,25.6v12.8a12.8,12.8,0,0,1,0,25.6V556a12.8,12.8,0,0,1,0,25.6v12.8A12.8,12.8,0,0,1,18,620v12.8a12.8,12.8,0,0,1,0,25.6v12.8a12.83,12.83,0,0,1,2.68.29A12.8,12.8,0,0,1,31,684h12.8a12.8,12.8,0,0,1,25.6,0h12.8a12.8,12.8,0,0,1,25.6,0h12.8a12.8,12.8,0,0,1,25.6,0H159a12.8,12.8,0,0,1,25.6,0h12.8a12.8,12.8,0,0,1,25.6,0h12.8a12.8,12.8,0,0,1,25.6,0h12.8a12.8,12.8,0,0,1,25.6,0h12.8a12.8,12.8,0,0,1,25.6,0H351a12.8,12.8,0,0,1,25.6,0h12.8a12.8,12.8,0,0,1,25.6,0h12.8a12.8,12.8,0,0,1,25.6,0h12.8a12.8,12.8,0,0,1,25.6,0h12.8a12.8,12.8,0,0,1,25.6,0h12.8a12.8,12.8,0,0,1,25.6,0h12.62v0a12.8,12.8,0,0,1,12.8-12.8h0v-12.8h0a12.8,12.8,0,0,1,0-25.6h0V620h0a12.8,12.8,0,0,1,0-25.6h0v-12.8h0a12.8,12.8,0,0,1,0-25.6h0v-12.8h0a12.8,12.8,0,0,1,0-25.6h0v-12.8h0a12.8,12.8,0,0,1,0-25.6h0v-12.8h0a12.8,12.8,0,0,1,0-25.6h0V428h0a12.8,12.8,0,0,1,0-25.6h0V389.6h0a12.8,12.8,0,0,1,0-25.6h0V351.2h0a12.8,12.8,0,0,1,0-25.6h0V312.8h0a12.8,12.8,0,0,1,0-25.6h0v-12.8h0a12.8,12.8,0,0,1,0-25.6h0V236h0a12.8,12.8,0,0,1,0-25.6h0v-12.8h0a12.8,12.8,0,0,1,0-25.6h0v-12.8h0a12.8,12.8,0,0,1,0-25.6ZM540,630H72V162H540Z"/></g><g id="Quadrupole_Moment" data-name="Quadrupole Moment"><path class="cls-14" d="M286.08,590.07H288l1-4.77a6.82,6.82,0,0,1,.57-1.67,9,9,0,0,1,1-1.46,5.47,5.47,0,0,1,1.16-1.14,1.83,1.83,0,0,1,1-.37,1,1,0,0,1,.83.32,1.84,1.84,0,0,1,.25,1.11,5,5,0,0,1-.09.8q-.09.51-.34,1.54l-.47,1.9a9.1,9.1,0,0,0-.36,2.1,2,2,0,0,0,.42,1.31,1.41,1.41,0,0,0,1.14.51,2.84,2.84,0,0,0,1.52-.42,9.72,9.72,0,0,0,1.73-1.53l-.63-.62a7.75,7.75,0,0,1-1.06,1,1.22,1.22,0,0,1-.7.27.52.52,0,0,1-.45-.2,1.11,1.11,0,0,1-.14-.64,8.27,8.27,0,0,1,.3-1.69l.72-2.88a8.79,8.79,0,0,0,.32-2,2.3,2.3,0,0,0-.55-1.63,2,2,0,0,0-1.57-.59,3.35,3.35,0,0,0-1.88.62,8.69,8.69,0,0,0-2,2l-.13,0,1.89-7.63h-.64l-2.78.1-.13.57a2.05,2.05,0,0,1,1,.21.72.72,0,0,1,.28.65,8.94,8.94,0,0,1-.26,1.63l-2.83,12.58Z"/><polygon class="cls-14" points="296.7 570.86 296.7 571.96 287 571.96 287 570.86 296.7 570.86 296.7 570.86"/><path class="cls-14" d="M300.82,583.68l-.36,1.66H302l.38-1.66Zm.82,3.1h-.38l-2.23.08-.09.52a1.35,1.35,0,0,1,.7.15.54.54,0,0,1,.21.44v.1a.49.49,0,0,1,0,.12q0,.36-.13.8t-.2.92l-.23,1q-.12.49-.21.93t-.16.82a4,4,0,0,0-.06.63,1.72,1.72,0,0,0,.09.58,1.33,1.33,0,0,0,.26.45,1.22,1.22,0,0,0,.4.3,1.25,1.25,0,0,0,.53.11,2.14,2.14,0,0,0,1.17-.33,4.7,4.7,0,0,0,.62-.46q.33-.28.73-.69l-.52-.51-.42.44a3.51,3.51,0,0,1-.35.3,1.32,1.32,0,0,1-.3.17.76.76,0,0,1-.28.05.46.46,0,0,1-.36-.13.62.62,0,0,1-.12-.42,3.15,3.15,0,0,1,0-.49q0-.27.15-.72l1.14-5.13Zm6.82-3.1-.38,1.66h1.55l.38-1.66Zm.82,3.1h-.53l-2.06.08-.12.52a1.55,1.55,0,0,1,.72.14.43.43,0,0,1,.2.4s0,.1,0,.16,0,.18-.05.34-.07.39-.13.68l-.25,1.18q-.16.74-.4,1.83t-.52,2.34a7.49,7.49,0,0,1-.35,1.17,2.51,2.51,0,0,1-.42.72,1.25,1.25,0,0,1-.53.36,2.11,2.11,0,0,1-.67.1h-.35a.82.82,0,0,1-.25-.05l-.19.81.33.06.39,0a4.37,4.37,0,0,0,1.34-.19,2.76,2.76,0,0,0,1-.59,3.35,3.35,0,0,0,.74-1,6.82,6.82,0,0,0,.5-1.51l1.6-7.55Z"/><path class="cls-14" d="M316.15,583.58a14.42,14.42,0,0,0,1.24,6.38,6.33,6.33,0,0,0,3.78,3.36l-.26.85a7.91,7.91,0,0,1-4.93-3.66,14.47,14.47,0,0,1,0-13.63,7.92,7.92,0,0,1,4.92-3.68l.3.85a6.35,6.35,0,0,0-3.81,3.32,13.82,13.82,0,0,0-1.24,6.21Z"/><path class="cls-14" d="M328.5,587.33a6.91,6.91,0,0,1-1.29,1.26,1.86,1.86,0,0,1-1,.37q-1.13,0-1.13-1.36a6.55,6.55,0,0,1,.08-.87q.08-.54.36-1.79l1-4.27h3.35l.24-1.11h-3.35l.61-2.72h-1.52q-.35,1.11-.53,1.56a4.12,4.12,0,0,1-.36.73,1.55,1.55,0,0,1-.41.44,1.8,1.8,0,0,1-.56.24,4.43,4.43,0,0,1-1,.1l-.17.76h1.85l-1.3,5.71a6.93,6.93,0,0,0-.19,1.55,2,2,0,0,0,2.3,2.32,3.46,3.46,0,0,0,1.85-.55,8,8,0,0,0,1.84-1.71l-.64-.66Z"/><path class="cls-14" d="M332.41,587.51q.08.81.08,1.65a7,7,0,0,1-.11,1.35,3.06,3.06,0,0,1-.36,1,4.69,4.69,0,0,1-.81,1l.59.67a11.6,11.6,0,0,0,1.59-1.39,4.42,4.42,0,0,0,.84-1.27,3.65,3.65,0,0,0,.26-1.41,7.73,7.73,0,0,0-.15-1.52Z"/><path class="cls-14" d="M344.06,582.14a3.35,3.35,0,0,0,.21-1.13,1.74,1.74,0,0,0-.4-1.19,1.38,1.38,0,0,0-1.09-.46,2.7,2.7,0,0,0-1.51.45,10.57,10.57,0,0,0-1.69,1.5l.63.62a7.91,7.91,0,0,1,1-1,1.23,1.23,0,0,1,.72-.28.52.52,0,0,1,.45.2,1.11,1.11,0,0,1,.14.64,5.22,5.22,0,0,1,0,.61,10.34,10.34,0,0,1-.2,1l-1.6,7h1.9l1-4.77a7.16,7.16,0,0,1,.58-1.71,8.46,8.46,0,0,1,.93-1.4,5.91,5.91,0,0,1,1.05-1.07,1.5,1.5,0,0,1,.86-.34.8.8,0,0,1,.42.1.79.79,0,0,1,.29.35,2.55,2.55,0,0,1,.19.72h1.13l.53-2.47a6.26,6.26,0,0,0-1.34-.12,3.54,3.54,0,0,0-2,.68,9.17,9.17,0,0,0-2.07,2.15l-.14-.06Z"/><path class="cls-14" d="M356,583.58a13.87,13.87,0,0,0-1.23-6.21A6.33,6.33,0,0,0,351,574l.3-.85a7.92,7.92,0,0,1,4.92,3.68,14.46,14.46,0,0,1,0,13.63,7.91,7.91,0,0,1-4.93,3.66l-.26-.85A6.34,6.34,0,0,0,354.8,590a14.41,14.41,0,0,0,1.24-6.38Z"/><path class="cls-14" d="M381.34,582.08v-1.46H367.78v1.46Zm0,4.57v-1.46H367.78v1.46Z"/><path class="cls-14" d="M400.37,571.18a23.13,23.13,0,0,1,3.07-3.86q1.24-1.32,1.75-1.89t.92-1.12a7.19,7.19,0,0,0,.67-1,4.21,4.21,0,0,0,.36-1,4.67,4.67,0,0,0,.12-1.07,3.24,3.24,0,0,0-1-2.6,4.64,4.64,0,0,0-3.09-.9A9,9,0,0,0,401,558a13.15,13.15,0,0,0-2.49.91V561h1.33a2.79,2.79,0,0,1,2.77-2.29,2.42,2.42,0,0,1,1.37.36,2.17,2.17,0,0,1,.81,1,3.76,3.76,0,0,1,.26,1.46,4.1,4.1,0,0,1-.13,1,5.14,5.14,0,0,1-.43,1.09,9.58,9.58,0,0,1-.92,1.37q-.56.73-1.84,2.13a25.7,25.7,0,0,0-2.28,2.85,13.67,13.67,0,0,0-1.28,2.37v.53h9.06l.19-3.21h-.94q-.18.52-.29.76a1.07,1.07,0,0,1-.31.4,1.25,1.25,0,0,1-.53.22,4.6,4.6,0,0,1-.87.07Z"/><path class="cls-14" d="M418.25,569.93a2.79,2.79,0,0,1-.46,1.08,2.62,2.62,0,0,1-.73.68,2.86,2.86,0,0,1-.89.36,4.27,4.27,0,0,1-.92.1,2.15,2.15,0,0,1-1.84-.79,4.22,4.22,0,0,1-.59-2.5,14.5,14.5,0,0,1,.32-2.92,17.19,17.19,0,0,1,.9-3,10.13,10.13,0,0,1,1.3-2.37,5.44,5.44,0,0,1,1.52-1.41,3.35,3.35,0,0,1,1.73-.47,2,2,0,0,1,1.65.6,3.46,3.46,0,0,1,.61,2h1.06l.67-3a12,12,0,0,0-1.9-.46,13.36,13.36,0,0,0-1.91-.13,6.33,6.33,0,0,0-3.3.89,7.8,7.8,0,0,0-2.54,2.49,12.6,12.6,0,0,0-1.6,3.65,14.28,14.28,0,0,0-.55,3.68,5,5,0,0,0,1.08,3.48,4,4,0,0,0,3.15,1.19,5.7,5.7,0,0,0,1.34-.16,10.23,10.23,0,0,0,1.8-.7l.57.87.87-.24.76-3.46q.23-1.06.37-1.52a2.81,2.81,0,0,1,.29-.69,1,1,0,0,1,.34-.34,2.14,2.14,0,0,1,.61-.2l.12-.54h-4.4l-.12.54a1.47,1.47,0,0,1,.82.24.87.87,0,0,1,.26.72,8,8,0,0,1-.24,1.77l-.12.52Z"/><path class="cls-14" d="M403.64,597.06l.54-2.49a10.4,10.4,0,0,0-2.7-.33,5.66,5.66,0,0,0-2.42.53,5.47,5.47,0,0,0-2,1.6,7.57,7.57,0,0,0-1.29,2.48,8.73,8.73,0,0,0-.44,2.59,4.07,4.07,0,0,0,.83,2.75,3,3,0,0,0,2.42.95,5,5,0,0,0,2.26-.53,7.3,7.3,0,0,0,2.09-1.67l-.67-.67a6.49,6.49,0,0,1-1.55,1.19,3.72,3.72,0,0,1-1.73.38,1.6,1.6,0,0,1-1.32-.54,2.62,2.62,0,0,1-.44-1.67,9.54,9.54,0,0,1,.56-3.12,6.5,6.5,0,0,1,1.45-2.51,2.76,2.76,0,0,1,2-.89,1.23,1.23,0,0,1,.73.19,1,1,0,0,1,.37.56,5,5,0,0,1,.14,1.21Z"/><path class="cls-14" d="M409.7,598.18H413v-.46l-.53-.16a.58.58,0,0,1-.28-.21.77.77,0,0,1-.12-.39q0-.25,0-.69v-1H414q0-.43.05-.85t.05-.84h-.65a4.35,4.35,0,0,1-.17.45.74.74,0,0,1-.2.27.65.65,0,0,1-.32.13,3.44,3.44,0,0,1-.51,0h-.14v-6.14h-1.22l-2.28,3.17-2.28,3.17v.61h4.34v1q0,.3,0,.5a2,2,0,0,1,0,.34.76.76,0,0,1-.08.22.43.43,0,0,1-.16.15,1.21,1.21,0,0,1-.27.12l-.39.11v.46Zm-2-3.82,1.48-2.12,1.48-2.13h.08q0,.25,0,.6t0,.75q0,.4,0,.78t0,.65v1.55h-3v-.09Z"/><path class="cls-14" d="M420.58,597a3.35,3.35,0,0,0,.21-1.13,1.74,1.74,0,0,0-.4-1.19,1.38,1.38,0,0,0-1.09-.46,2.7,2.7,0,0,0-1.51.45,10.57,10.57,0,0,0-1.69,1.5l.63.62a7.91,7.91,0,0,1,1-1,1.23,1.23,0,0,1,.72-.28.52.52,0,0,1,.45.2,1.11,1.11,0,0,1,.14.64,5.22,5.22,0,0,1,0,.61,10.34,10.34,0,0,1-.2,1l-1.6,7h1.9l1-4.77a7.16,7.16,0,0,1,.58-1.71,8.46,8.46,0,0,1,.93-1.4,5.91,5.91,0,0,1,1.05-1.07,1.5,1.5,0,0,1,.86-.34.8.8,0,0,1,.42.1.79.79,0,0,1,.29.35,2.55,2.55,0,0,1,.19.72h1.13l.53-2.47a6.26,6.26,0,0,0-1.34-.12,3.54,3.54,0,0,0-2,.68,9.17,9.17,0,0,0-2.07,2.15l-.14-.06Z"/><rect class="cls-14" x="394.28" y="582.85" width="32.91" height="1.35"/><path class="cls-14" d="M437,578.32q.23-1.06.39-1.52a3.12,3.12,0,0,1,.3-.69,1,1,0,0,1,.32-.33,2.05,2.05,0,0,1,.6-.2l.12-.54h-4.4l-.12.54a1.47,1.47,0,0,1,.82.24.87.87,0,0,1,.26.72,8.68,8.68,0,0,1-.24,1.77l-1.87,8.47q-.24,1.09-.36,1.47a3.78,3.78,0,0,1-.26.64,1.19,1.19,0,0,1-.35.41,1.5,1.5,0,0,1-.63.21l-.12.54h4.4l.12-.54a1.5,1.5,0,0,1-.83-.25.86.86,0,0,1-.25-.7,6,6,0,0,1,0-.69q0-.38.19-1l1.88-8.54Z"/><path class="cls-14" d="M434.77,573.33a1.18,1.18,0,0,1-.89-.38,1.44,1.44,0,0,1,0-1.91,1.24,1.24,0,0,1,1.79,0,1.44,1.44,0,0,1,0,1.91,1.19,1.19,0,0,1-.9.38Zm4.71,0a1.19,1.19,0,0,1-.9-.38,1.44,1.44,0,0,1,0-1.91,1.24,1.24,0,0,1,1.79,0,1.44,1.44,0,0,1,0,1.91,1.18,1.18,0,0,1-.89.38Z"/><path class="cls-14" d="M441.28,583.68l-.36,1.66h1.53l.38-1.66Zm.82,3.1h-.38l-2.23.08-.09.52a1.35,1.35,0,0,1,.7.15.54.54,0,0,1,.21.44v.1a.5.5,0,0,1,0,.12q0,.36-.13.8t-.2.92l-.23,1q-.12.49-.21.93t-.16.82a4,4,0,0,0-.06.63,1.72,1.72,0,0,0,.09.58,1.33,1.33,0,0,0,.26.45,1.22,1.22,0,0,0,.4.3,1.25,1.25,0,0,0,.53.11,2.26,2.26,0,0,0,.6-.08,2.28,2.28,0,0,0,.57-.25,4.7,4.7,0,0,0,.62-.46q.33-.28.73-.69l-.52-.51-.42.44a3.51,3.51,0,0,1-.35.3,1.32,1.32,0,0,1-.3.17.76.76,0,0,1-.28.05.46.46,0,0,1-.36-.13.62.62,0,0,1-.12-.42,3.15,3.15,0,0,1,0-.49q0-.27.15-.72l1.14-5.13Zm6.82-3.1-.38,1.66h1.55l.38-1.66Zm.82,3.1h-.53l-2.06.08-.12.52a1.55,1.55,0,0,1,.72.14.43.43,0,0,1,.2.4s0,.1,0,.16,0,.18-.05.34-.07.39-.13.68l-.25,1.18q-.16.74-.4,1.83t-.52,2.34a7.49,7.49,0,0,1-.35,1.17,2.51,2.51,0,0,1-.42.72,1.25,1.25,0,0,1-.53.36,2.11,2.11,0,0,1-.67.1h-.35a.82.82,0,0,1-.25-.05l-.19.81.33.06.39,0a4.36,4.36,0,0,0,1.34-.19,2.76,2.76,0,0,0,1-.59,3.35,3.35,0,0,0,.74-1,6.82,6.82,0,0,0,.5-1.51l1.6-7.55Z"/><path class="cls-14" d="M457.72,578.32a6.35,6.35,0,0,1,3.81-3.31l-.3-.85a8,8,0,0,0-4.94,3.66,14.24,14.24,0,0,0,0,13.57,8,8,0,0,0,4.94,3.65l.26-.85a6.33,6.33,0,0,1-3.78-3.35,14.28,14.28,0,0,1-1.24-6.35,13.69,13.69,0,0,1,1.24-6.18Z"/><path class="cls-14" d="M469,587.33a6.91,6.91,0,0,1-1.29,1.26,1.86,1.86,0,0,1-1,.37q-1.13,0-1.13-1.36a6.55,6.55,0,0,1,.08-.87q.08-.54.36-1.79l1-4.27h3.35l.24-1.11h-3.35l.61-2.72h-1.52q-.35,1.11-.53,1.56a4.12,4.12,0,0,1-.36.73,1.55,1.55,0,0,1-.41.44,1.8,1.8,0,0,1-.56.24,4.43,4.43,0,0,1-1,.1l-.17.76h1.85l-1.3,5.71a6.93,6.93,0,0,0-.19,1.55,2,2,0,0,0,2.3,2.32,3.46,3.46,0,0,0,1.85-.55A8,8,0,0,0,469.6,588l-.64-.66Z"/><polygon class="cls-14" points="491.6 584.35 491.6 582.89 478.04 582.89 478.04 584.35 491.6 584.35 491.6 584.35"/><path class="cls-14" d="M503,565a3.35,3.35,0,0,0,.21-1.13,1.74,1.74,0,0,0-.4-1.19,1.38,1.38,0,0,0-1.09-.46,2.7,2.7,0,0,0-1.51.45,10.57,10.57,0,0,0-1.69,1.5l.63.62a7.91,7.91,0,0,1,1-1,1.23,1.23,0,0,1,.72-.28.52.52,0,0,1,.45.2,1.11,1.11,0,0,1,.14.64,5.22,5.22,0,0,1,0,.61,10.34,10.34,0,0,1-.2,1l-1.6,7h1.9l1-4.77a7.16,7.16,0,0,1,.58-1.71,8.46,8.46,0,0,1,.93-1.4,5.91,5.91,0,0,1,1.05-1.07,1.5,1.5,0,0,1,.86-.34.8.8,0,0,1,.42.1.79.79,0,0,1,.29.35,2.55,2.55,0,0,1,.19.72H508l.53-2.47a6.26,6.26,0,0,0-1.34-.12,3.54,3.54,0,0,0-2,.68,9.17,9.17,0,0,0-2.07,2.15L503,565Z"/><path class="cls-14" d="M507.76,597.06l.54-2.49a10.4,10.4,0,0,0-2.7-.33,5.66,5.66,0,0,0-2.42.53,5.47,5.47,0,0,0-2,1.6,7.57,7.57,0,0,0-1.29,2.48,8.73,8.73,0,0,0-.44,2.59,4.07,4.07,0,0,0,.83,2.75,3,3,0,0,0,2.42.95,5,5,0,0,0,2.26-.53,7.3,7.3,0,0,0,2.09-1.67l-.67-.67a6.49,6.49,0,0,1-1.55,1.19,3.72,3.72,0,0,1-1.73.38,1.6,1.6,0,0,1-1.32-.54,2.62,2.62,0,0,1-.44-1.67,9.54,9.54,0,0,1,.56-3.12,6.5,6.5,0,0,1,1.45-2.51,2.76,2.76,0,0,1,2-.89,1.23,1.23,0,0,1,.73.19,1,1,0,0,1,.37.56,5,5,0,0,1,.14,1.21Z"/><rect class="cls-14" x="498.41" y="582.85" width="11.27" height="1.35"/><path class="cls-14" d="M513.7,590.85a6.33,6.33,0,0,1-3.78,3.35l.26.85a8,8,0,0,0,4.94-3.65,14.24,14.24,0,0,0,0-13.57,8,8,0,0,0-4.94-3.66l-.3.85a6.33,6.33,0,0,1,3.82,3.31,13.74,13.74,0,0,1,1.23,6.18,14.28,14.28,0,0,1-1.24,6.35Z"/></g></g></svg>